<?xml version="1.0" standalone="no"?>
<!DOCTYPE svg PUBLIC "-//W3C//DTD SVG 20010904//EN"
 "http://www.w3.org/TR/2001/REC-SVG-20010904/DTD/svg10.dtd">
<svg version="1.0" xmlns="http://www.w3.org/2000/svg"
 width="1085.000000pt" height="1085.000000pt" viewBox="0 0 1085.000000 1085.000000"
 preserveAspectRatio="xMidYMid meet">
<metadata>
Created by potrace 1.11, written by Peter Selinger 2001-2013
</metadata>
<g transform="translate(0.000000,1085.000000) scale(0.100000,-0.100000)"
fill="#000000" stroke="none">
<path d="M194 10805 c-15 -37 -7 -495 10 -630 3 -16 7 -66 10 -110 4 -44 9
-96 11 -115 3 -19 7 -62 9 -95 5 -59 8 -87 26 -255 5 -47 12 -110 15 -140 3
-30 7 -68 9 -85 2 -16 7 -61 11 -100 4 -38 8 -77 10 -85 2 -8 6 -44 9 -80 4
-36 9 -76 11 -90 2 -14 7 -50 10 -80 4 -30 8 -66 10 -80 3 -22 6 -47 20 -170
3 -19 7 -51 10 -70 2 -19 7 -55 10 -80 5 -41 10 -75 20 -150 2 -14 7 -49 10
-79 4 -30 8 -63 11 -74 2 -10 6 -45 9 -76 4 -31 13 -96 20 -146 8 -49 17 -115
20 -145 3 -30 8 -62 10 -70 2 -8 6 -37 10 -65 3 -27 12 -90 20 -140 16 -107
26 -169 31 -210 2 -16 6 -48 10 -70 4 -22 8 -51 9 -65 2 -14 5 -38 8 -55 3
-16 9 -50 12 -75 4 -25 9 -52 10 -60 7 -41 17 -103 20 -123 5 -41 16 -111 36
-232 25 -151 29 -174 34 -205 16 -103 91 -524 115 -650 16 -85 32 -168 35
-185 2 -16 7 -41 10 -55 3 -14 10 -50 16 -80 6 -30 15 -73 19 -95 5 -22 19
-87 31 -145 56 -277 139 -622 199 -830 105 -363 188 -539 369 -785 42 -57 159
-204 171 -215 3 -3 28 -32 55 -65 223 -268 944 -995 1252 -1263 11 -9 62 -55
113 -102 119 -108 101 -92 205 -185 50 -44 92 -82 95 -85 17 -18 378 -332 615
-536 310 -265 523 -444 1095 -920 151 -125 289 -241 305 -256 35 -32 47 -34
66 -11 14 16 214 181 454 373 72 58 132 107 135 110 3 3 25 21 50 40 65 52
464 377 610 498 69 57 145 120 169 140 60 50 202 169 315 265 11 10 30 26 41
35 11 9 68 57 125 107 58 49 116 99 129 110 13 11 42 36 65 56 23 20 84 73
136 119 92 80 214 189 270 240 15 14 62 57 106 96 124 113 131 119 279 258
184 173 537 526 650 650 50 55 97 107 105 115 30 32 177 208 229 274 55 69 66
85 153 215 148 219 260 554 408 1226 41 186 148 719 164 821 3 17 21 122 41
235 34 191 106 628 155 940 28 178 28 177 35 235 5 43 16 116 30 205 2 14 7
45 10 70 3 25 8 56 10 70 2 14 16 111 30 215 14 105 30 217 35 251 6 33 12 83
15 110 3 27 10 81 15 119 5 39 12 90 15 115 3 25 7 61 10 80 3 19 7 53 9 75 3
22 14 110 25 195 11 85 23 180 26 210 3 30 8 66 10 80 2 14 6 54 10 90 4 36 8
76 10 90 7 45 15 124 20 180 3 30 7 70 10 90 2 19 7 60 10 90 5 52 9 90 20
200 3 25 7 68 9 95 3 28 8 79 12 115 7 73 8 86 19 224 4 54 9 115 11 135 8 84
15 483 9 502 -10 30 -28 9 -49 -56 -18 -55 -35 -85 -81 -136 -71 -80 -258
-178 -465 -244 -73 -23 -109 -34 -210 -61 -139 -37 -505 -113 -665 -138 -16
-2 -75 -12 -130 -21 -55 -9 -111 -18 -125 -20 -48 -7 -185 -27 -220 -31 -19
-3 -46 -7 -60 -9 -14 -2 -43 -7 -65 -9 -22 -3 -89 -13 -150 -21 -60 -9 -128
-18 -150 -21 -22 -2 -71 -9 -110 -14 -38 -6 -90 -12 -115 -15 -57 -7 -131 -16
-150 -20 -8 -1 -40 -6 -70 -10 -30 -3 -66 -8 -80 -10 -21 -3 -124 -17 -217
-30 -64 -8 -520 -75 -539 -79 -12 -2 -37 -7 -55 -10 -19 -3 -45 -8 -59 -11
-13 -2 -42 -7 -64 -11 -54 -8 -57 -10 -109 -79 -102 -136 -239 -232 -450 -316
-26 -10 -130 -42 -230 -69 -269 -75 -445 -134 -547 -184 l-91 -44 -87 43
c-118 58 -200 86 -448 155 -359 100 -488 154 -625 259 -64 49 -189 186 -200
219 -4 10 -140 42 -244 56 -22 4 -53 9 -68 12 -16 3 -38 7 -50 9 -32 4 -248
36 -277 41 -14 2 -61 8 -105 14 -44 6 -89 12 -100 14 -11 2 -45 7 -75 10 -30
4 -66 8 -80 11 -22 3 -123 18 -215 30 -16 2 -102 13 -190 24 -88 12 -169 23
-180 25 -11 2 -47 7 -80 11 -32 4 -66 8 -75 10 -8 1 -42 6 -75 11 -33 4 -62 8
-65 9 -8 2 -122 18 -150 20 -21 3 -103 16 -255 41 -16 3 -42 7 -57 9 -15 2
-54 9 -87 15 -34 5 -72 12 -86 15 -22 3 -72 13 -171 31 -79 15 -279 60 -321
73 -18 5 -33 8 -33 5 0 -3 -8 0 -19 5 -10 6 -32 13 -49 16 -37 6 -233 69 -277
89 -16 7 -46 19 -65 26 -83 32 -202 105 -256 157 -46 45 -70 83 -93 148 -25
70 -37 86 -47 60z"/>
</g>
</svg>
